# AST/ASF file generated using VICON BodyLanguage
# -----------------------------------------------
:version 1.10
:name VICON
:units
  mass 1.0
  length 0.45
  angle deg
:documentation
   .ast/.asf automatically generated from VICON data using
   VICON BodyBuilder and BodyLanguage model FoxedUp or BRILLIANT.MOD
:root
   order TX TY TZ RX RY RZ
   axis XYZ
   position 0 0 0  
   orientation 0 0 0 
:bonedata
  begin
     id 1 
     name lhipjoint
     direction 0.631061 -0.684803 0.364427 
     length 2.59943 
     axis 0 0 0  XYZ
  end
  begin
     id 2 
     name lfemur
     direction 0.34202 -0.939693 0  
     length 6.69088  
     axis 0 0 20  XYZ
    dof rx ry rz
    limits (-160.0 20.0)
           (-70.0 70.0)
           (-60.0 70.0)
  end
  begin
     id 3 
     name ltibia
     direction 0.34202 -0.939693 0   
     length 7.83506   
     axis 0 0 20   XYZ
    dof rx
    limits (-10.0 170.0)
  end
  begin
     id 4 
     name lfoot
     direction 0.176279 -0.484322 0.856947   
     length 2.95235   
     axis -90 7.62852e-016 20   XYZ
    dof rx rz
    limits (-45.0 90.0)
           (-70.0 20.0)
  end
  begin
     id 5 
     name ltoes
     direction 1.53551e-011 -4.21828e-011 1   
     length 1.41888   
     axis -90 7.62852e-016 20   XYZ
    dof rx
    limits (-90.0 20.0)
  end
  begin
     id 6 
     name rhipjoint
     direction -0.641155 -0.677457 0.360518   
     length 2.62761  
     axis 0 0 0  XYZ 
  end
  begin
     id 7 
     name rfemur
     direction -0.34202 -0.939693 0   
     length 6.52283   
     axis 0 0 -20   XYZ
    dof rx ry rz
    limits (-160.0 20.0)
           (-70.0 70.0)
           (-70.0 60.0)
  end
  begin
     id 8 
     name rtibia
     direction -0.34202 -0.939693 0   
     length 7.74138   
     axis 0 0 -20   XYZ
    dof rx
    limits (-10.0 170.0)
 end
 begin
     id 9 
     name rfoot
     direction -0.186474 -0.512334 0.838297   
     length 2.72941  
     axis -90 -7.62852e-016 -20   XYZ
    dof rx rz
    limits (-45.0 90.0)
           (-20.0 70.0)
  end
  begin
     id 10 
     name rtoes
     direction -1.53683e-011 -4.22007e-011 1   
     length 1.30521   
     axis -90 -7.62852e-016 -20   XYZ
    dof rx
    limits (-90.0 20.0)
  end
  begin
     id 11 
     name lowerback
     direction -0.0121201 0.985605 -0.168631   
     length 2.60975   
     axis 0 0 0   XYZ
    dof rx ry rz
    limits (-20.0 45.0)
           (-30.0 30.0)
           (-30.0 30.0)
  end
  begin
     id 12 
     name upperback
     direction -0.019495 0.999568 -0.0220039   
     length 2.65091   
     axis 0 0 0   XYZ
    dof rx ry rz
    limits (-20.0 45.0)
           (-30.0 30.0)
           (-30.0 30.0)
  end
  begin
     id 13 
     name thorax
     direction -0.0125765 0.998661 0.0501718   
     length 2.70267   
     axis 0 0 0   XYZ
    dof rx ry rz
    limits (-20.0 45.0)
           (-30.0 30.0)
           (-30.0 30.0)
  end
  begin
     id 14 
     name lowerneck
     direction -0.0309438 0.997491 -0.0636732   
     length 1.56498   
     axis 0 0 0   XYZ
    dof rx ry rz
    limits (-20.0 45.0)
           (-30.0 30.0)
           (-30.0 30.0)
  end
  begin
     id 15 
     name upperneck
     direction -0.00130017 0.992397 -0.123074   
     length 1.5414   
     axis 0 0 0   XYZ
    dof rx ry rz
    limits (-20.0 45.0)
           (-30.0 30.0)
           (-30.0 30.0)
  end
  begin
     id 16
     name head
     direction 0.00242507 0.999315 -0.0369171  
     length 1.60129  
     axis 0 0 0   XYZ
    dof rx ry rz
    limits (-20.0 45.0)
           (-30.0 30.0)
           (-30.0 30.0)
  end
  begin
     id 17 
     name lclavicle
     direction 0.996744 0.0363396 -0.0719802  
     length 4.63989  
     axis 0 0 0   XYZ
    dof ry rz
    limits (-20.0 10.0)
           (0.0 20.0)
  end
  begin
     id 18 
     name lhumerus
     direction 1 -4.49035e-011 -2.38432e-027   
     length 4.58161   
     axis 180 -30 -90   XYZ
    dof rx ry rz
    limits (-60.0 90.0)
           (-90.0 90.0)
           (-90.0 90.0)
  end
  begin
     id 19
     name lradius
     direction 1 0.000357117 -0.000206182   
     length 3.43782   
     axis 180 -30 -90   XYZ
    dof rx
    limits (-10.0 170.0)
  end
  begin
     id 20
     name lwrist
     direction 1 -7.34592e-005 -0.000404398   
     length 1.71891   
     axis 7.40711e-015 90 90   XYZ
    dof ry
    limits (-180.0 0.0)
 end
  begin
     id 21 
     name lhand
     direction 1 -4.48735e-011 -2.22254e-026   
     length 1.04662   
     axis 1.41817e-014 90 90   XYZ
    dof rx rz
    limits (-90.0 90.0)
           (-45.0 45.0)
  end
  begin
     id 22 
     name lfingers
     direction 1 -4.49414e-011 -4.44507e-026   
     length 0.843814   
     axis 2.83634e-014 90 90   XYZ
    dof rx
    limits (0.0 90.0)
  end
  begin
     id 23
     name lthumb
     direction 0.707107 -6.3482e-011 0.707107   
     length 1.21155   
     axis -90 45 2.85299e-015   XYZ
    dof rx rz
    limits (-45.0 45.0)
           (-45.0 45.0)
  end
  begin
     id 24 
     name rclavicle
     direction -0.997328 0.0105626 0.0722925   
     length 4.0272  
     axis 0 0 0   XYZ 
    dof ry rz
    limits (-10.0 20.0)
           (-20.0 0.0)
  end
  begin
     id 25 
     name rhumerus
     direction -1 -4.48913e-011 -1.83378e-027  
     length 4.53415   
     axis 180 30 90   XYZ
    dof rx ry rz
    limits (-90.0 60.0)
           (-90.0 90.0)
           (-90.0 90.0)
  end
  begin
     id 26 
     name rradius
     direction -0.999999 0.00120542 -0.000695951   
     length 3.33298   
     axis 180 30 90   XYZ
    dof rx
    limits (-10.0 170.0)
  end
  begin
     id 27 
     name rwrist
     direction -0.999999 0.000362235 -0.0013361   
     length 1.66649   
     axis 7.40711e-015 -90 -90   XYZ
    dof ry
    limits (-180.0 0.0)
  end
  begin
     id 28
     name rhand
     direction -1 -4.49379e-011 -2.22254e-026   
     length 1.21477   
     axis 1.41817e-014 -90 -90   XYZ
    dof rx rz
    limits (-90.0 90.0)
           (-45.0 45.0)
  end
  begin
     id 29
     name rfingers
     direction -1 -4.48656e-011 -4.44507e-026   
     length 0.979378   
     axis 2.83634e-014 -90 -90   XYZ
    dof rx
    limits (0.0 90.0)
  end
  begin
     id 30
     name rthumb
     direction -0.707107 -6.35052e-011 0.707107   
     length 1.4062   
     axis -90 -45 -2.85299e-015   XYZ
    dof rx rz
    limits (-45.0 45.0)
           (-45.0 45.0)
  end
:hierarchy
  begin
    root lhipjoint rhipjoint lowerback
    lhipjoint lfemur
    lfemur ltibia
    ltibia lfoot
    lfoot ltoes
    rhipjoint rfemur
    rfemur rtibia
    rtibia rfoot
    rfoot rtoes
    lowerback upperback
    upperback thorax
    thorax lowerneck lclavicle rclavicle
    lowerneck upperneck
    upperneck head
    lclavicle lhumerus
    lhumerus lradius
    lradius lwrist
    lwrist lhand lthumb
    lhand lfingers
    rclavicle rhumerus
    rhumerus rradius
    rradius rwrist
    rwrist rhand rthumb
    rhand rfingers
  end

#!OML:ASF X:\für Bonn\!DataBase\2005_08_12_Daniel\c3d\Daniel.ASF
:FULLY-SPECIFIED
:DEGREES
1
root 0.246661 17.1291 0.105887 -36.2074 -79.747 29.9764
lowerback 5.13978 -3.10589 -5.21813
upperback 0.0187751 -4.53795 -1.99184
thorax -2.61868 -2.21802 1.18392
lowerneck 2.01114 1.68944 -4.82098
upperneck 5.906 2.16955 -0.984092
head 1.44909 0.922046 0.509416
rclavicle -1.75086e-014 -2.48481e-015
rhumerus 13.0745 -46.8825 -31.3768
rradius 6.39708
rwrist 34.0357
rhand -22.5145 1.22685
rfingers 7.12502
rthumb 3.91194 -28.717
lclavicle -1.75086e-014 -2.48481e-015
lhumerus 7.1688 47.8254 17.3985
lradius 7.53838
lwrist -38.7723
lhand -30.0671 15.4476
lfingers 7.12502
lthumb -3.38228 45.4005
rfemur 8.11614 21.3333 15.3421
rtibia 23.2121
rfoot -38.7467 -26.0871
rtoes -4.89321
lfemur -2.25013 -25.5402 -25.0721
ltibia 32.0037
lfoot -29.8687 13.7383
ltoes -1.65537
2
root 0.245766 17.1292 0.105749 -36.1828 -79.7423 29.9567
lowerback 5.15292 -3.11559 -5.22867
upperback 0.00348602 -4.55239 -1.97668
thorax -2.63901 -2.22409 1.20756
lowerneck 2.0393 1.70462 -4.85746
upperneck 5.89226 2.18641 -0.962847
head 1.43913 0.930375 0.521745
rclavicle 5.00068e-016 1.46604e-014
rhumerus 13.1249 -46.8479 -31.4084
rradius 6.31631
rwrist 34.008
rhand -22.5496 1.31941
rfingers 7.12502
rthumb 3.87801 -28.6251
lclavicle 5.00068e-016 1.46604e-014
lhumerus 7.04913 47.8191 17.376
lradius 7.61875
lwrist -38.8198
lhand -29.9987 15.3527
lfingers 7.12502
lthumb -3.31624 45.3066
rfemur 8.11598 21.3459 15.3507
rtibia 23.2183
rfoot -38.7698 -26.0957
rtoes -4.90895
lfemur -2.25758 -25.4991 -25.0557
ltibia 31.9965
lfoot -29.8448 13.7001
ltoes -1.66276
3
root 0.245186 17.1292 0.10541 -36.3705 -79.7393 30.1515
lowerback 5.14611 -3.10148 -5.25403
upperback 0.0162601 -4.53471 -1.98784
thorax -2.62197 -2.2158 1.20807
lowerneck 2.00264 1.6927 -4.85123
upperneck 5.89799 2.17323 -0.957959
head 1.44748 0.923957 0.522676
rclavicle -2.0509e-014 -7.90169e-015
rhumerus 13.1573 -46.8794 -31.4447
rradius 6.2251
rwrist 33.9836
rhand -22.6154 1.37095
rfingers 7.12502
rthumb 3.81454 -28.5747
lclavicle -2.0509e-014 -7.90169e-015
lhumerus 7.03033 47.8398 17.4155
lradius 7.69174
lwrist -38.9345
lhand -29.9155 15.2999
lfingers 7.12502
lthumb -3.23585 45.2551
rfemur 8.09813 21.3275 15.3017
rtibia 23.2277
rfoot -38.7423 -26.07
rtoes -4.91775
lfemur -2.25445 -25.4837 -25.0869
ltibia 31.9883
lfoot -29.8457 13.7037
ltoes -1.66233
4
root 0.244208 17.129 0.10484 -36.3377 -79.7363 30.1165
lowerback 5.15204 -3.10326 -5.257
upperback 0.0153121 -4.5376 -1.98511
thorax -2.62567 -2.21705 1.21309
lowerneck 2.01112 1.68946 -4.82587
upperneck 5.89985 2.16923 -0.976246
head 1.44704 0.922127 0.512627
rclavicle -6.48007e-014 -2.73329e-014
rhumerus 13.1906 -46.8742 -31.4799
rradius 6.14605
rwrist 33.9861
rhand -22.6532 1.4089
rfingers 7.12502
rthumb 3.77796 -28.5374
lclavicle -6.48007e-014 -2.73329e-014
lhumerus 6.95921 47.838 17.4288
lradius 7.7962
lwrist -38.9915
lhand -29.853 15.2801
lfingers 7.12502
lthumb -3.17545 45.2362
rfemur 8.10387 21.3258 15.3119
rtibia 23.2317
rfoot -38.7522 -26.0708
rtoes -4.91636
lfemur -2.25003 -25.4739 -25.0786
ltibia 31.9845
lfoot -29.8396 13.6894
ltoes -1.66427
5
root 0.244067 17.1292 0.104619 -36.3229 -79.7255 30.1097
lowerback 5.16461 -3.09926 -5.25333
upperback 0.00435161 -4.53364 -1.9892
thorax -2.64491 -2.2145 1.20785
lowerneck 2.01054 1.68068 -4.8255
upperneck 5.91014 2.15743 -0.969632
head 1.45058 0.916086 0.514668
rclavicle -1.45579e-014 -3.47873e-015
rhumerus 13.1699 -46.8748 -31.4632
rradius 6.0711
rwrist 33.9741
rhand -22.6699 1.47506
rfingers 7.12502
rthumb 3.76187 -28.4715
lclavicle -1.45579e-014 -3.47873e-015
lhumerus 6.91129 47.8234 17.4455
lradius 7.8734
lwrist -39.0465
lhand -29.7787 15.1977
lfingers 7.12502
lthumb -3.10377 45.1549
rfemur 8.0913 21.2981 15.2975
rtibia 23.2377
rfoot -38.7413 -26.0577
rtoes -4.92009
lfemur -2.26054 -25.4622 -25.073
ltibia 31.9795
lfoot -29.8261 13.6721
ltoes -1.66723
6
root 0.243482 17.1294 0.104608 -36.33 -79.7247 30.1194
lowerback 5.16933 -3.0989 -5.25342
upperback 0.00168498 -4.53369 -1.99048
thorax -2.65041 -2.21436 1.207
lowerneck 2.01339 1.68186 -4.81497
upperneck 5.90961 2.15851 -0.956539
head 1.44986 0.917172 0.516961
rclavicle -3.25758e-014 8.39865e-015
rhumerus 13.1854 -46.8725 -31.4839
rradius 5.9813
rwrist 33.953
rhand -22.7006 1.52189
rfingers 7.12502
rthumb 3.73221 -28.4252
lclavicle -3.25758e-014 8.39865e-015
lhumerus 6.87136 47.8217 17.4543
lradius 7.90926
lwrist -39.1276
lhand -29.7453 15.1702
lfingers 7.12502
lthumb -3.07151 45.1278
rfemur 8.09195 21.3042 15.2983
rtibia 23.2384
rfoot -38.7489 -26.0605
rtoes -4.93904
lfemur -2.2726 -25.3851 -25.0568
ltibia 31.9776
lfoot -29.7775 13.641
ltoes -1.72844
7
root 0.243468 17.1294 0.104611 -36.33 -79.7247 30.1194
lowerback 5.17518 -3.09659 -5.24552
upperback 0.0144575 -4.5303 -1.99659
thorax -2.64176 -2.21329 1.19607
lowerneck 1.9939 1.67698 -4.78242
upperneck 5.89732 2.15424 -0.967891
head 1.4497 0.916021 0.508103
rclavicle -3.57564e-014 -2.33572e-015
rhumerus 13.2 -46.8991 -31.5238
rradius 5.92024
rwrist 33.9268
rhand -22.7133 1.59552
rfingers 7.12502
rthumb 3.71999 -28.3518
lclavicle -3.57564e-014 -2.33572e-015
lhumerus 6.89501 47.8436 17.4814
lradius 7.88281
lwrist -39.2045
lhand -29.7344 15.1812
lfingers 7.12502
lthumb -3.06094 45.139
rfemur 8.08592 21.2786 15.2879
rtibia 23.2407
rfoot -38.7422 -26.0387
rtoes -4.9411
lfemur -2.27277 -25.3726 -25.0531
ltibia 31.9739
lfoot -29.7701 13.6311
ltoes -1.78524
8
root 0.243264 17.1296 0.10398 -36.3737 -79.711 30.1644
lowerback 5.1983 -3.09024 -5.2542
upperback 0.00235779 -4.52499 -2.00439
thorax -2.66755 -2.20978 1.19445
lowerneck 2.01154 1.66738 -4.76674
upperneck 5.90482 2.1406 -0.973449
head 1.44948 0.909239 0.503534
rclavicle 4.57981e-014 2.54444e-014
rhumerus 13.136 -46.8993 -31.4757
rradius 5.88436
rwrist 33.8682
rhand -22.7164 1.66836
rfingers 7.12502
rthumb 3.71698 -28.279
lclavicle 4.57981e-014 2.54444e-014
lhumerus 6.90203 47.8241 17.4834
lradius 7.83099
lwrist -39.2735
lhand -29.7426 15.1621
lfingers 7.12502
lthumb -3.06892 45.1198
rfemur 8.08518 21.2631 15.2692
rtibia 23.2384
rfoot -38.7339 -26.0327
rtoes -4.94218
lfemur -2.2759 -25.3693 -25.0636
ltibia 31.9722
lfoot -29.7511 13.6217
ltoes -1.78161
9
root 0.243058 17.1296 0.103595 -36.3984 -79.7187 30.1894
lowerback 5.20978 -3.08717 -5.2585
upperback -0.000769346 -4.52204 -2.00182
thorax -2.67686 -2.20794 1.20011
lowerneck 2.00558 1.66789 -4.77743
upperneck 5.90985 2.14069 -0.946073
head 1.45177 0.90945 0.513974
rclavicle -1.28092e-014 -8.49804e-015
rhumerus 13.1538 -46.8964 -31.4901
rradius 5.8188
rwrist 33.8567
rhand -22.7203 1.72952
rfingers 7.12502
rthumb 3.71318 -28.2179
lclavicle -1.28092e-014 -8.49804e-015
lhumerus 6.89829 47.8243 17.482
lradius 7.77754
lwrist -39.3455
lhand -29.7874 15.1936
lfingers 7.12502
lthumb -3.11212 45.1507
rfemur 8.08129 21.2478 15.2621
rtibia 23.236
rfoot -38.7122 -26.02
rtoes -4.94799
lfemur -2.27474 -25.3514 -25.0588
ltibia 31.9709
lfoot -29.7491 13.6126
ltoes -1.78246
10
root 0.242449 17.1304 0.103435 -36.3951 -79.7181 30.1906
lowerback 5.22173 -3.08001 -5.24937
upperback -0.0113196 -4.51346 -2.00567
thorax -2.69598 -2.20316 1.19176
lowerneck 2.01679 1.66041 -4.75824
upperneck 5.91411 2.13046 -0.953831
head 1.45161 0.904522 0.508201
rclavicle 2.66123e-014 4.96962e-017
rhumerus 13.1106 -46.8976 -31.449
rradius 5.77515
rwrist 33.8366
rhand -22.7152 1.76513
rfingers 7.12502
rthumb 3.71813 -28.1822
lclavicle 2.66123e-014 4.96962e-017
lhumerus 6.93819 47.8058 17.5059
lradius 7.69931
lwrist -39.4533
lhand -29.8239 15.3088
lfingers 7.12502
lthumb -3.14737 45.2653
rfemur 8.07427 21.2089 15.247
rtibia 23.2311
rfoot -38.6783 -26
rtoes -4.97899
lfemur -2.2803 -25.3335 -25.0512
ltibia 31.9708
lfoot -29.7404 13.6017
ltoes -1.79467
11
root 0.242251 17.1304 0.10332 -36.3771 -79.7125 30.1719
lowerback 5.22843 -3.08944 -5.26134
upperback 0.000797835 -4.52599 -1.991
thorax -2.68436 -2.20955 1.21414
lowerneck 2.00989 1.66331 -4.78497
upperneck 5.88047 2.13419 -0.949649
head 1.44181 0.906855 0.513793
rclavicle 1.57754e-014 3.62782e-015
rhumerus 13.1904 -46.9028 -31.5195
rradius 5.76359
rwrist 33.8219
rhand -22.6879 1.79534
rfingers 7.12502
rthumb 3.74453 -28.1515
lclavicle 1.57754e-014 3.62782e-015
lhumerus 6.90296 47.8452 17.4749
lradius 7.64624
lwrist -39.4947
lhand -29.8933 15.3602
lfingers 7.12502
lthumb -3.21441 45.3158
rfemur 8.07745 21.1903 15.2432
rtibia 23.2273
rfoot -38.6687 -25.9926
rtoes -4.98139
lfemur -2.28942 -25.2773 -25.0332
ltibia 31.9703
lfoot -29.711 13.5498
ltoes -1.80364
12
root 0.241659 17.1304 0.102993 -36.3947 -79.7191 30.1938
lowerback 5.24155 -3.07993 -5.25255
upperback -0.0131198 -4.51452 -1.9942
thorax -2.70772 -2.20316 1.20666
lowerneck 2.02928 1.65936 -4.79236
upperneck 5.87986 2.12663 -0.92499
head 1.43817 0.903415 0.522443
rclavicle 1.15326e-014 -1.80397e-014
rhumerus 13.1288 -46.8981 -31.4769
rradius 5.75431
rwrist 33.83
rhand -22.6807 1.82051
rfingers 7.12502
rthumb 3.75146 -28.1262
lclavicle 1.15326e-014 -1.80397e-014
lhumerus 6.9484 47.822 17.4852
lradius 7.54486
lwrist -39.5634
lhand -29.9527 15.4251
lfingers 7.12502
lthumb -3.27177 45.3798
rfemur 8.07538 21.1975 15.2382
rtibia 23.2224
rfoot -38.6925 -25.9492
rtoes -4.93536
lfemur -2.29161 -25.2791 -25.0324
ltibia 31.9707
lfoot -29.7171 13.5562
ltoes -1.80239
13
root 0.241271 17.1305 0.102909 -36.4475 -79.7022 30.2481
lowerback 5.25163 -3.07934 -5.2626
upperback -0.0151132 -4.51577 -2.00566
thorax -2.71556 -2.20358 1.20124
lowerneck 2.01545 1.66007 -4.77573
upperneck 5.9083 2.12843 -0.910054
head 1.44951 0.904183 0.524739
rclavicle -7.57245e-015 6.85807e-015
rhumerus 13.1262 -46.9028 -31.4843
rradius 5.7488
rwrist 33.7648
rhand -22.6555 1.87367
rfingers 7.12502
rthumb 3.77577 -28.0726
lclavicle -7.57245e-015 6.85807e-015
lhumerus 6.97833 47.8192 17.4701
lradius 7.46205
lwrist -39.6402
lhand -30.0381 15.5011
lfingers 7.12502
lthumb -3.35428 45.4545
rfemur 8.07334 21.1688 15.2104
rtibia 23.2243
rfoot -38.6925 -25.9276
rtoes -5.00917
lfemur -2.29259 -25.2648 -25.0459
ltibia 31.966
lfoot -29.7043 13.5398
ltoes -1.8053
14
root 0.240923 17.1304 0.102653 -36.4207 -79.6988 30.2168
lowerback 5.27308 -3.07589 -5.25938
upperback -0.0221248 -4.51265 -2.00183
thorax -2.73496 -2.20139 1.20482
lowerneck 2.03732 1.65056 -4.7748
upperneck 5.90235 2.11451 -0.920696
head 1.44426 0.897198 0.520885
rclavicle 3.97787e-014 1.25234e-014
rhumerus 13.104 -46.9006 -31.4524
rradius 5.75523
rwrist 33.8016
rhand -22.6599 1.89449
rfingers 7.12502
rthumb 3.77154 -28.0519
lclavicle 3.97787e-014 1.25234e-014
lhumerus 7.01483 47.8081 17.4848
lradius 7.38676
lwrist -39.684
lhand -30.1331 15.551
lfingers 7.12502
lthumb -3.44596 45.5029
rfemur 8.07921 21.1595 15.2161
rtibia 23.2261
rfoot -38.6923 -25.921
rtoes -5.0243
lfemur -2.28799 -25.2523 -25.0385
ltibia 31.9621
lfoot -29.6951 13.524
ltoes -1.80744
